<svg width="256" height="256" viewBox="0 0 256 256" fill="none" xmlns="http://www.w3.org/2000/svg">
<path d="M85.021 75.2668C84.3518 73.4534 85.2794 71.4408 87.0929 70.7716L124.619 56.9237C126.433 56.2545 128.445 57.1821 129.115 58.9956C129.784 60.809 128.856 62.8216 127.043 63.4908L89.5163 77.3387C87.7028 78.0079 85.6902 77.0803 85.021 75.2668Z" fill="black"/>
<path d="M78.6057 37.6624C78.0321 36.108 78.8272 34.3829 80.3816 33.8093L106.65 24.1158C108.205 23.5422 109.93 24.3373 110.503 25.8917L122.62 58.7274C123.194 60.2817 122.399 62.0068 120.844 62.5804L94.5757 72.274C93.0213 72.8476 91.2962 72.0525 90.7226 70.4981L78.6057 37.6624Z" fill="black"/>
</svg>
