<svg width="256" height="256" viewBox="0 0 256 256" fill="none" xmlns="http://www.w3.org/2000/svg">
<path d="M191.998 106C191.999 105.81 192 105.62 192 105.43C192 69.8462 163.122 41 127.5 41C91.8776 41 63 69.8462 63 105.43C63 105.62 63.0008 105.81 63.0025 106H191.998Z" fill="black"/>
<path d="M103.296 80.5L112.796 69L146.296 46C140.463 47.8333 124.896 51.5 109.296 51.5C89.7964 51.5 86.7964 58.5 82.7964 61.5C78.7964 64.5 66 76.5 62.5 87C59 97.5 49.877 116.531 46.5 127C41.5 142.5 40 163.738 40 171.5C40 180.5 40.5928 207 50.2964 213.5C60 220 71.2964 216 71.2964 216C71.2964 216 83.0675 212.924 86.7964 207C89.8576 202.137 89.2964 192.5 89.2964 192.5V178.5V166.5V142.5L92 122.5L97.7964 96L103.296 80.5Z" fill="black" stroke="black"/>
</svg>
