<svg width="256" height="256" viewBox="0 0 256 256" fill="none" xmlns="http://www.w3.org/2000/svg">
<rect x="134" y="132" width="31" height="2" fill="white"/>
<rect x="142" y="134" width="15" height="2" fill="white"/>
<path fill-rule="evenodd" clip-rule="evenodd" d="M122 132C118.686 132 116 134.686 116 138V151C116 154.314 118.686 157 122 157H140C143.314 157 146 154.314 146 151V138C146 134.686 143.314 132 140 132H122ZM124.4 134C121.086 134 118.4 136.686 118.4 140V149C118.4 152.314 121.086 155 124.4 155H137.6C140.914 155 143.6 152.314 143.6 149V140C143.6 136.686 140.914 134 137.6 134H124.4Z" fill="white"/>
<path fill-rule="evenodd" clip-rule="evenodd" d="M160 132C156.686 132 154 134.686 154 138V151C154 154.314 156.686 157 160 157H177C180.314 157 183 154.314 183 151V138C183 134.686 180.314 132 177 132H160ZM162.32 134C159.006 134 156.32 136.686 156.32 140V149C156.32 152.314 159.006 155 162.32 155H174.68C177.994 155 180.68 152.314 180.68 149V140C180.68 136.686 177.994 134 174.68 134H162.32Z" fill="white"/>
<rect x="118" y="134" width="26" height="21" rx="6" fill="#0029BC" fill-opacity="0.6"/>
<rect x="156" y="134" width="25" height="21" rx="6" fill="#BC0000" fill-opacity="0.6"/>
</svg>
