<svg width="256" height="256" viewBox="0 0 256 256" fill="none" xmlns="http://www.w3.org/2000/svg">
<path fill-rule="evenodd" clip-rule="evenodd" d="M129.783 160.876C138.925 160.876 146.336 153.465 146.336 144.323C146.336 135.181 138.925 127.77 129.783 127.77C120.641 127.77 113.23 135.181 113.23 144.323C113.23 153.465 120.641 160.876 129.783 160.876ZM129.783 157.278C136.938 157.278 142.738 151.478 142.738 144.323C142.738 137.168 136.938 131.368 129.783 131.368C122.629 131.368 116.829 137.168 116.829 144.323C116.829 151.478 122.629 157.278 129.783 157.278Z" fill="#8D5D00"/>
<path fill-rule="evenodd" clip-rule="evenodd" d="M168.597 160.876C177.739 160.876 185.15 153.465 185.15 144.323C185.15 135.181 177.739 127.77 168.597 127.77C159.455 127.77 152.044 135.181 152.044 144.323C152.044 153.465 159.455 160.876 168.597 160.876ZM168.597 157.278C175.752 157.278 181.552 151.478 181.552 144.323C181.552 137.168 175.752 131.368 168.597 131.368C161.443 131.368 155.643 137.168 155.643 144.323C155.643 151.478 161.443 157.278 168.597 157.278Z" fill="#8D5D00"/>
<rect x="140.628" y="132.336" width="17.1239" height="4.56637" fill="#8D5D00"/>
</svg>
