<svg width="256" height="256" viewBox="0 0 256 256" fill="none" xmlns="http://www.w3.org/2000/svg">
<rect x="117" y="134" width="64" height="19" fill="black" fill-opacity="0.5"/>
<path d="M116 151V142.434C116 141.94 116.073 141.45 116.217 140.978L117.227 137.66C117.415 137.042 117.721 136.466 118.128 135.965L119.033 134.849C119.982 133.679 121.409 133 122.915 133H129.098L175.544 133.615C175.812 133.619 176.08 133.644 176.345 133.691L177.94 133.971C178.939 134.147 179.861 134.623 180.583 135.335L180.906 135.653C181.614 136.351 182.098 137.245 182.296 138.22L182.9 141.198C182.967 141.525 183 141.858 183 142.192V151" stroke="#002540" stroke-width="5" stroke-linecap="round"/>
</svg>
